<mxfile host="app.diagrams.net" modified="2021-06-29T21:56:21.588Z" agent="5.0 (Windows NT 10.0; Win64; x64) AppleWebKit/537.36 (KHTML, like Gecko) Chrome/91.0.4472.114 Safari/537.36" etag="6qE2dZATHJRkrfPCVuWv" version="14.8.2" type="github">
  <diagram id="kgpKYQtTHZ0yAKxKKP6v" name="Page-1">
    <mxGraphModel dx="1662" dy="762" grid="1" gridSize="10" guides="1" tooltips="1" connect="1" arrows="1" fold="1" page="1" pageScale="1" pageWidth="850" pageHeight="1100" math="0" shadow="0">
      <root>
        <mxCell id="0" />
        <mxCell id="1" parent="0" />
        <mxCell id="3nuBFxr9cyL0pnOWT2aG-1" value="Browser" style="shape=umlLifeline;perimeter=lifelinePerimeter;container=1;collapsible=0;recursiveResize=0;rounded=0;shadow=0;strokeWidth=1;" parent="1" vertex="1">
          <mxGeometry x="120" y="120" width="100" height="350" as="geometry" />
        </mxCell>
        <mxCell id="0sVgJiSGboXCqLXjGb6a-4" value="" style="endArrow=classic;html=1;entryX=0.48;entryY=0.263;entryDx=0;entryDy=0;entryPerimeter=0;" edge="1" parent="3nuBFxr9cyL0pnOWT2aG-1" target="3nuBFxr9cyL0pnOWT2aG-5">
          <mxGeometry relative="1" as="geometry">
            <mxPoint x="50" y="90" as="sourcePoint" />
            <mxPoint x="150" y="90" as="targetPoint" />
          </mxGeometry>
        </mxCell>
        <mxCell id="0sVgJiSGboXCqLXjGb6a-5" value="get /&amp;nbsp;" style="edgeLabel;resizable=0;html=1;align=center;verticalAlign=middle;" connectable="0" vertex="1" parent="0sVgJiSGboXCqLXjGb6a-4">
          <mxGeometry relative="1" as="geometry" />
        </mxCell>
        <mxCell id="3nuBFxr9cyL0pnOWT2aG-5" value="API Docs App" style="shape=umlLifeline;perimeter=lifelinePerimeter;container=1;collapsible=0;recursiveResize=0;rounded=0;shadow=0;strokeWidth=1;" parent="1" vertex="1">
          <mxGeometry x="400" y="120" width="100" height="350" as="geometry" />
        </mxCell>
        <mxCell id="0sVgJiSGboXCqLXjGb6a-1" value="&lt;font size=&quot;3&quot;&gt;Unauthenticated User Flow&lt;/font&gt;" style="text;html=1;strokeColor=none;fillColor=none;align=center;verticalAlign=middle;whiteSpace=wrap;rounded=0;" vertex="1" parent="1">
          <mxGeometry x="260" y="40" width="250" height="20" as="geometry" />
        </mxCell>
        <mxCell id="0sVgJiSGboXCqLXjGb6a-2" value="" style="shape=cylinder3;whiteSpace=wrap;html=1;boundedLbl=1;backgroundOutline=1;size=15;" vertex="1" parent="1">
          <mxGeometry x="670" y="190" width="60" height="120" as="geometry" />
        </mxCell>
        <mxCell id="0sVgJiSGboXCqLXjGb6a-3" value="DB" style="text;html=1;strokeColor=none;fillColor=none;align=center;verticalAlign=middle;whiteSpace=wrap;rounded=0;" vertex="1" parent="1">
          <mxGeometry x="680" y="245" width="40" height="20" as="geometry" />
        </mxCell>
        <mxCell id="0sVgJiSGboXCqLXjGb6a-9" value="" style="rounded=0;whiteSpace=wrap;html=1;" vertex="1" parent="1">
          <mxGeometry x="445" y="225" width="10" height="165" as="geometry" />
        </mxCell>
        <mxCell id="0sVgJiSGboXCqLXjGb6a-10" value="" style="endArrow=classic;html=1;entryX=-0.017;entryY=0.408;entryDx=0;entryDy=0;entryPerimeter=0;" edge="1" parent="1" target="0sVgJiSGboXCqLXjGb6a-2">
          <mxGeometry relative="1" as="geometry">
            <mxPoint x="455" y="240" as="sourcePoint" />
            <mxPoint x="555" y="240" as="targetPoint" />
          </mxGeometry>
        </mxCell>
        <mxCell id="0sVgJiSGboXCqLXjGb6a-11" value="select default &lt;br&gt;version of json" style="edgeLabel;resizable=0;html=1;align=center;verticalAlign=middle;" connectable="0" vertex="1" parent="0sVgJiSGboXCqLXjGb6a-10">
          <mxGeometry relative="1" as="geometry" />
        </mxCell>
        <mxCell id="0sVgJiSGboXCqLXjGb6a-12" value="" style="endArrow=classic;html=1;" edge="1" parent="1">
          <mxGeometry relative="1" as="geometry">
            <mxPoint x="670" y="269.5" as="sourcePoint" />
            <mxPoint x="459" y="270" as="targetPoint" />
          </mxGeometry>
        </mxCell>
        <mxCell id="0sVgJiSGboXCqLXjGb6a-13" value="default version of json" style="edgeLabel;resizable=0;html=1;align=center;verticalAlign=middle;" connectable="0" vertex="1" parent="0sVgJiSGboXCqLXjGb6a-12">
          <mxGeometry relative="1" as="geometry" />
        </mxCell>
        <mxCell id="0sVgJiSGboXCqLXjGb6a-18" value="&lt;span style=&quot;font-size: 10px&quot;&gt;use version specific&lt;br&gt;template&lt;br&gt;&lt;/span&gt;" style="text;html=1;strokeColor=none;fillColor=none;align=center;verticalAlign=middle;whiteSpace=wrap;rounded=0;" vertex="1" parent="1">
          <mxGeometry x="460" y="300" width="40" height="20" as="geometry" />
        </mxCell>
        <mxCell id="0sVgJiSGboXCqLXjGb6a-20" value="" style="endArrow=classic;html=1;exitX=0.47;exitY=0.84;exitDx=0;exitDy=0;exitPerimeter=0;entryX=0.53;entryY=0.84;entryDx=0;entryDy=0;entryPerimeter=0;" edge="1" parent="1" source="3nuBFxr9cyL0pnOWT2aG-5" target="3nuBFxr9cyL0pnOWT2aG-1">
          <mxGeometry relative="1" as="geometry">
            <mxPoint x="445" y="410" as="sourcePoint" />
            <mxPoint x="174.5" y="410" as="targetPoint" />
          </mxGeometry>
        </mxCell>
        <mxCell id="0sVgJiSGboXCqLXjGb6a-21" value="Vue app" style="edgeLabel;resizable=0;html=1;align=center;verticalAlign=middle;" connectable="0" vertex="1" parent="0sVgJiSGboXCqLXjGb6a-20">
          <mxGeometry relative="1" as="geometry" />
        </mxCell>
        <mxCell id="0sVgJiSGboXCqLXjGb6a-22" value="&lt;font style=&quot;font-size: 10px&quot;&gt;set json data&lt;/font&gt;" style="text;html=1;strokeColor=none;fillColor=none;align=center;verticalAlign=middle;whiteSpace=wrap;rounded=0;" vertex="1" parent="1">
          <mxGeometry x="460" y="360" width="40" height="20" as="geometry" />
        </mxCell>
        <mxCell id="0sVgJiSGboXCqLXjGb6a-23" value="" style="rounded=0;whiteSpace=wrap;html=1;" vertex="1" parent="1">
          <mxGeometry x="165" y="420" width="10" height="40" as="geometry" />
        </mxCell>
        <mxCell id="0sVgJiSGboXCqLXjGb6a-24" value="&lt;font style=&quot;font-size: 10px&quot;&gt;hydrate template with json data&lt;/font&gt;" style="text;html=1;strokeColor=none;fillColor=none;align=center;verticalAlign=middle;whiteSpace=wrap;rounded=0;" vertex="1" parent="1">
          <mxGeometry x="175" y="430" width="75" height="20" as="geometry" />
        </mxCell>
      </root>
    </mxGraphModel>
  </diagram>
</mxfile>
